<svg width="196" height="35" viewBox="0 0 196 35" fill="none" xmlns="http://www.w3.org/2000/svg">
<path d="M23.0939 13.8959H12.9966C12.73 13.8959 12.53 14.0958 12.53 14.3624V19.2943C12.53 19.5609 12.73 19.7608 12.9966 19.7608H16.9289V25.8924C16.9289 25.8924 16.0291 26.1923 13.5964 26.1923C10.7305 26.1923 6.69824 25.1259 6.69824 16.2952C6.69824 7.43114 10.8971 6.26482 14.8294 6.26482C18.2285 6.26482 19.6948 6.86464 20.6279 7.16455C20.9278 7.26452 21.1944 6.96461 21.1944 6.69802L22.3275 1.93276C22.3275 1.79947 22.2941 1.66617 22.1608 1.5662C21.7943 1.29962 19.4615 0 13.6297 0C6.89818 0 0 2.86582 0 16.6284C0 30.391 7.89792 32.4571 14.5628 32.4571C20.0947 32.4571 23.4272 30.0911 23.4272 30.0911C23.5605 30.0245 23.5938 29.8245 23.5938 29.7246V14.3291C23.5605 14.0958 23.3605 13.8959 23.0939 13.8959Z" fill="#100E0F"/>
<path d="M75.0801 1.63329C75.0801 1.36669 74.8801 1.16675 74.6135 1.16675H68.9484C68.6818 1.16675 68.4818 1.36669 68.4818 1.63329V12.5971H59.6175V1.63329C59.6175 1.36669 59.4176 1.16675 59.151 1.16675H53.4858C53.2192 1.16675 53.0193 1.36669 53.0193 1.63329V31.3588C53.0193 31.6254 53.2192 31.8254 53.4858 31.8254H59.151C59.4176 31.8254 59.6175 31.6254 59.6175 31.3588V18.6621H68.4818V31.3588C68.4818 31.6254 68.6818 31.8254 68.9484 31.8254H74.6469C74.9135 31.8254 75.1134 31.6254 75.1134 31.3588V1.63329H75.0801Z" fill="#100E0F"/>
<path d="M33.7908 5.56445C33.7908 3.53168 32.1581 1.86548 30.1255 1.86548C28.0929 1.86548 26.4602 3.53168 26.4602 5.56445C26.4602 7.59722 28.0929 9.26342 30.1255 9.26342C32.1581 9.26342 33.7908 7.59722 33.7908 5.56445Z" fill="#100E0F"/>
<path d="M33.391 25.0918C33.391 24.3253 33.391 11.3621 33.391 11.3621C33.391 11.0955 33.1911 10.8955 32.9244 10.8955H27.2589C26.9923 10.8955 26.759 11.1621 26.759 11.4287C26.759 11.4287 26.759 27.9244 26.759 31.0902C26.759 31.6568 27.1256 31.8234 27.5922 31.8234C27.5922 31.8234 30.025 31.8234 32.6912 31.8234C33.2577 31.8234 33.391 31.5568 33.391 31.0569C33.391 30.0238 33.391 25.8916 33.391 25.0918Z" fill="#100E0F"/>
<path d="M96.6395 10.9636H91.0076C90.741 10.9636 90.541 11.1636 90.541 11.4302V25.9924C90.541 25.9924 89.1081 27.0255 87.0753 27.0255C85.0425 27.0255 84.5093 26.0924 84.5093 24.1263C84.5093 22.1269 84.5093 11.4302 84.5093 11.4302C84.5093 11.1636 84.3093 10.9636 84.0427 10.9636H78.3109C78.0443 10.9636 77.8444 11.1636 77.8444 11.4302C77.8444 11.4302 77.8444 19.1945 77.8444 25.0927C77.8444 30.9909 81.1435 32.4572 85.6756 32.4572C89.408 32.4572 92.3739 30.3911 92.3739 30.3911C92.3739 30.3911 92.5072 31.4575 92.5738 31.5907C92.6405 31.724 92.8071 31.8573 92.9737 31.8573H96.6061C96.8727 31.8573 97.0727 31.6574 97.0727 31.3908V11.4302C97.106 11.1636 96.906 10.9636 96.6395 10.9636Z" fill="#100E0F"/>
<path d="M112.068 10.2962C108.869 10.2962 106.703 11.7291 106.703 11.7291V1.6655C106.703 1.39891 106.503 1.19897 106.236 1.19897H100.538C100.271 1.19897 100.071 1.39891 100.071 1.6655V31.3899C100.071 31.6564 100.271 31.8564 100.538 31.8564H104.503C104.67 31.8564 104.803 31.7564 104.903 31.5898C105.003 31.4232 105.137 30.2235 105.137 30.2235C105.137 30.2235 107.469 32.4229 111.868 32.4229C117.034 32.4229 120 29.7903 120 20.6264C120 11.4959 115.268 10.2962 112.068 10.2962ZM109.836 27.0245C107.869 26.9579 106.57 26.0915 106.57 26.0915V16.6943C106.57 16.6943 107.869 15.8945 109.469 15.7612C111.502 15.5946 113.468 16.1944 113.468 21.0263C113.435 26.0915 112.568 27.1245 109.836 27.0245Z" fill="#100E0F"/>
<path d="M49.7197 10.8973H45.4542V5.26538C45.4542 5.06543 45.3542 4.93213 45.0876 4.93213H39.2892C39.0559 4.93213 38.956 5.0321 38.956 5.23205V11.0639C38.956 11.0639 36.0567 11.7637 35.8568 11.8304C35.6569 11.897 35.5236 12.0637 35.5236 12.2969V15.9627C35.5236 16.2293 35.7235 16.4292 35.9901 16.4292H38.956C38.956 16.4292 38.956 20.2616 38.956 25.227C38.956 31.7587 43.5214 32.3919 46.6205 32.3919C48.0202 32.3919 49.7197 31.9254 49.9863 31.8254C50.1529 31.7587 50.2529 31.5921 50.2529 31.3922V27.3598C50.2529 27.0932 50.0196 26.8933 49.7863 26.8933C49.5531 26.8933 48.8866 26.9933 48.2534 26.9933C46.154 26.9933 45.4542 26.0268 45.4542 24.7605C45.4542 23.4941 45.4542 16.3959 45.4542 16.3959H49.7197C49.9863 16.3959 50.1862 16.196 50.1862 15.9294V11.3638C50.1862 11.1306 49.9863 10.8973 49.7197 10.8973Z" fill="#100E0F"/>
<path d="M137.008 21.3945C135.078 20.8398 133.672 20.1602 132.789 19.3555C131.914 18.543 131.477 17.543 131.477 16.3555C131.477 15.0117 132.012 13.9023 133.082 13.0273C134.16 12.1445 135.559 11.7031 137.277 11.7031C138.449 11.7031 139.492 11.9297 140.406 12.3828C141.328 12.8359 142.039 13.4609 142.539 14.2578C143.047 15.0547 143.301 15.9258 143.301 16.8711H141.039C141.039 15.8398 140.711 15.0312 140.055 14.4453C139.398 13.8516 138.473 13.5547 137.277 13.5547C136.168 13.5547 135.301 13.8008 134.676 14.293C134.059 14.7773 133.75 15.4531 133.75 16.3203C133.75 17.0156 134.043 17.6055 134.629 18.0898C135.223 18.5664 136.227 19.0039 137.641 19.4023C139.062 19.8008 140.172 20.2422 140.969 20.7266C141.773 21.2031 142.367 21.7617 142.75 22.4023C143.141 23.043 143.336 23.7969 143.336 24.6641C143.336 26.0469 142.797 27.1562 141.719 27.9922C140.641 28.8203 139.199 29.2344 137.395 29.2344C136.223 29.2344 135.129 29.0117 134.113 28.5664C133.098 28.1133 132.312 27.4961 131.758 26.7148C131.211 25.9336 130.938 25.0469 130.938 24.0547H133.199C133.199 25.0859 133.578 25.9023 134.336 26.5039C135.102 27.0977 136.121 27.3945 137.395 27.3945C138.582 27.3945 139.492 27.1523 140.125 26.668C140.758 26.1836 141.074 25.5234 141.074 24.6875C141.074 23.8516 140.781 23.207 140.195 22.7539C139.609 22.293 138.547 21.8398 137.008 21.3945ZM145.316 22.543C145.316 21.3008 145.559 20.1836 146.043 19.1914C146.535 18.1992 147.215 17.4336 148.082 16.8945C148.957 16.3555 149.953 16.0859 151.07 16.0859C152.797 16.0859 154.191 16.6836 155.254 17.8789C156.324 19.0742 156.859 20.6641 156.859 22.6484V22.8008C156.859 24.0352 156.621 25.1445 156.145 26.1289C155.676 27.1055 155 27.8672 154.117 28.4141C153.242 28.9609 152.234 29.2344 151.094 29.2344C149.375 29.2344 147.98 28.6367 146.91 27.4414C145.848 26.2461 145.316 24.6641 145.316 22.6953V22.543ZM147.496 22.8008C147.496 24.207 147.82 25.3359 148.469 26.1875C149.125 27.0391 150 27.4648 151.094 27.4648C152.195 27.4648 153.07 27.0352 153.719 26.1758C154.367 25.3086 154.691 24.0977 154.691 22.543C154.691 21.1523 154.359 20.0273 153.695 19.168C153.039 18.3008 152.164 17.8672 151.07 17.8672C150 17.8672 149.137 18.293 148.48 19.1445C147.824 19.9961 147.496 21.2148 147.496 22.8008ZM164.664 27.4648C165.438 27.4648 166.113 27.2305 166.691 26.7617C167.27 26.293 167.59 25.707 167.652 25.0039H169.703C169.664 25.7305 169.414 26.4219 168.953 27.0781C168.492 27.7344 167.875 28.2578 167.102 28.6484C166.336 29.0391 165.523 29.2344 164.664 29.2344C162.938 29.2344 161.562 28.6602 160.539 27.5117C159.523 26.3555 159.016 24.7773 159.016 22.7773V22.4141C159.016 21.1797 159.242 20.082 159.695 19.1211C160.148 18.1602 160.797 17.4141 161.641 16.8828C162.492 16.3516 163.496 16.0859 164.652 16.0859C166.074 16.0859 167.254 16.5117 168.191 17.3633C169.137 18.2148 169.641 19.3203 169.703 20.6797H167.652C167.59 19.8594 167.277 19.1875 166.715 18.6641C166.16 18.1328 165.473 17.8672 164.652 17.8672C163.551 17.8672 162.695 18.2656 162.086 19.0625C161.484 19.8516 161.184 20.9961 161.184 22.4961V22.9062C161.184 24.3672 161.484 25.4922 162.086 26.2812C162.688 27.0703 163.547 27.4648 164.664 27.4648ZM174.496 29H172.328V16.3203H174.496V29ZM172.152 12.957C172.152 12.6055 172.258 12.3086 172.469 12.0664C172.688 11.8242 173.008 11.7031 173.43 11.7031C173.852 11.7031 174.172 11.8242 174.391 12.0664C174.609 12.3086 174.719 12.6055 174.719 12.957C174.719 13.3086 174.609 13.6016 174.391 13.8359C174.172 14.0703 173.852 14.1875 173.43 14.1875C173.008 14.1875 172.688 14.0703 172.469 13.8359C172.258 13.6016 172.152 13.3086 172.152 12.957ZM185.805 29C185.68 28.75 185.578 28.3047 185.5 27.6641C184.492 28.7109 183.289 29.2344 181.891 29.2344C180.641 29.2344 179.613 28.8828 178.809 28.1797C178.012 27.4688 177.613 26.5703 177.613 25.4844C177.613 24.1641 178.113 23.1406 179.113 22.4141C180.121 21.6797 181.535 21.3125 183.355 21.3125H185.465V20.3164C185.465 19.5586 185.238 18.957 184.785 18.5117C184.332 18.0586 183.664 17.832 182.781 17.832C182.008 17.832 181.359 18.0273 180.836 18.418C180.312 18.8086 180.051 19.2812 180.051 19.8359H177.871C177.871 19.2031 178.094 18.5938 178.539 18.0078C178.992 17.4141 179.602 16.9453 180.367 16.6016C181.141 16.2578 181.988 16.0859 182.91 16.0859C184.371 16.0859 185.516 16.4531 186.344 17.1875C187.172 17.9141 187.602 18.918 187.633 20.1992V26.0352C187.633 27.1992 187.781 28.125 188.078 28.8125V29H185.805ZM182.207 27.3477C182.887 27.3477 183.531 27.1719 184.141 26.8203C184.75 26.4688 185.191 26.0117 185.465 25.4492V22.8477H183.766C181.109 22.8477 179.781 23.625 179.781 25.1797C179.781 25.8594 180.008 26.3906 180.461 26.7734C180.914 27.1562 181.496 27.3477 182.207 27.3477ZM193.387 29H191.219V11H193.387V29Z" fill="black"/>
</svg>
